<svg width="280" height="280" viewBox="0 0 280 280" fill="none" xmlns="http://www.w3.org/2000/svg">
  <rect width="280" height="280" rx="24" fill="white"/>
  <rect x="20" y="20" width="240" height="240" rx="18" fill="#F7F7F7"/>
  <rect x="38" y="38" width="54" height="54" rx="8" fill="#111111"/>
  <rect x="188" y="38" width="54" height="54" rx="8" fill="#111111"/>
  <rect x="38" y="188" width="54" height="54" rx="8" fill="#111111"/>
  <rect x="114" y="40" width="12" height="12" fill="#111111"/>
  <rect x="132" y="40" width="12" height="12" fill="#111111"/>
  <rect x="150" y="40" width="12" height="12" fill="#111111"/>
  <rect x="114" y="58" width="12" height="12" fill="#111111"/>
  <rect x="150" y="58" width="12" height="12" fill="#111111"/>
  <rect x="114" y="76" width="12" height="12" fill="#111111"/>
  <rect x="132" y="76" width="12" height="12" fill="#111111"/>
  <rect x="150" y="76" width="12" height="12" fill="#111111"/>
  <rect x="114" y="112" width="12" height="12" fill="#111111"/>
  <rect x="132" y="112" width="12" height="12" fill="#111111"/>
  <rect x="150" y="112" width="12" height="12" fill="#111111"/>
  <rect x="168" y="112" width="12" height="12" fill="#111111"/>
  <rect x="186" y="112" width="12" height="12" fill="#111111"/>
  <rect x="204" y="112" width="12" height="12" fill="#111111"/>
  <rect x="222" y="112" width="12" height="12" fill="#111111"/>
  <rect x="114" y="130" width="12" height="12" fill="#111111"/>
  <rect x="150" y="130" width="12" height="12" fill="#111111"/>
  <rect x="186" y="130" width="12" height="12" fill="#111111"/>
  <rect x="222" y="130" width="12" height="12" fill="#111111"/>
  <rect x="114" y="148" width="12" height="12" fill="#111111"/>
  <rect x="132" y="148" width="12" height="12" fill="#111111"/>
  <rect x="168" y="148" width="12" height="12" fill="#111111"/>
  <rect x="204" y="148" width="12" height="12" fill="#111111"/>
  <rect x="222" y="148" width="12" height="12" fill="#111111"/>
  <rect x="114" y="166" width="12" height="12" fill="#111111"/>
  <rect x="150" y="166" width="12" height="12" fill="#111111"/>
  <rect x="168" y="166" width="12" height="12" fill="#111111"/>
  <rect x="186" y="166" width="12" height="12" fill="#111111"/>
  <rect x="204" y="166" width="12" height="12" fill="#111111"/>
  <rect x="114" y="184" width="12" height="12" fill="#111111"/>
  <rect x="132" y="184" width="12" height="12" fill="#111111"/>
  <rect x="150" y="184" width="12" height="12" fill="#111111"/>
  <rect x="168" y="184" width="12" height="12" fill="#111111"/>
  <rect x="222" y="184" width="12" height="12" fill="#111111"/>
  <text x="140" y="262" text-anchor="middle" fill="#00B207" font-family="Arial, sans-serif" font-size="14" font-weight="700">FRESHFOODSTORE QR</text>
</svg>
