<svg width="320" height="220" viewBox="0 0 320 220" fill="none" xmlns="http://www.w3.org/2000/svg">
  <rect width="320" height="220" rx="24" fill="#F7FAFF"/>
  <rect x="24" y="24" width="272" height="172" rx="20" fill="url(#paint0_linear)"/>
  <circle cx="78" cy="78" r="18" fill="#FFC439"/>
  <path d="M150.858 67.412C149.413 57.278 140.386 50 129.72 50H99L85.182 140H107.347L111.089 114.969H123.609C134.245 114.969 143.295 107.691 144.732 97.556L146.012 88.525C146.366 86.025 146.366 83.487 146.012 80.987L150.858 67.412Z" fill="white" fill-opacity="0.92"/>
  <path d="M170.258 67.412C168.813 57.278 159.786 50 149.12 50H118.4L104.582 140H126.747L130.489 114.969H143.009C153.645 114.969 162.695 107.691 164.132 97.556L165.412 88.525C165.766 86.025 165.766 83.487 165.412 80.987L170.258 67.412Z" fill="#9CC3FF"/>
  <text x="42" y="160" fill="white" font-family="Arial, sans-serif" font-size="18" font-weight="700">PayPal Checkout</text>
  <text x="42" y="182" fill="white" font-family="Arial, sans-serif" font-size="13">Thanh toán bảo mật qua ví PayPal</text>
  <rect x="214" y="144" width="58" height="26" rx="13" fill="white" fill-opacity="0.18"/>
  <text x="243" y="161" text-anchor="middle" fill="white" font-family="Arial, sans-serif" font-size="11" font-weight="700">MOCK</text>
  <defs>
    <linearGradient id="paint0_linear" x1="24" y1="24" x2="296" y2="196" gradientUnits="userSpaceOnUse">
      <stop stop-color="#003087"/>
      <stop offset="1" stop-color="#009CDE"/>
    </linearGradient>
  </defs>
</svg>
